PathFileType  4	(X/Y/Z) C:\Users\antoi\Documents\MyRepositories\mobilecap\ResultsAnalysis
DataRate	CameraRate	NumFrames	NumMarkers	Units	OrigDataRate	OrigDataStartFrame	OrigNumFrames
100.0	100.0	4	51	mm	100.0	1224	1631
Frame#	Time	r_knee			r_shank_antsup			r_ankle			r_calc			r_5meta			r_toe			L_knee			L_shank_antsup			L_ankle			L_calc			L_5meta			L_toe			r_sh2			r_sh3			r_sh4			L_sh2			L_sh3			r_thigh1			r_thigh2			r_thigh3			r_thigh4			r_thigh5			L_thigh1			L_thigh2			L_thigh3			L_thigh4			r.ASIS			r.PSIS			L.ASIS			L.PSIS			C7			R_Shoulder			L_Shoulder			R_Sternum			L_Sternum			R_humerus			R_elbow_med			R_elbow_lat			R_forearm			R_wrist_radius			R_wrist_ulna			L_humerus			L_elbow_med			L_elbow_lat			L_forearm			L_wrist_radius			L_wrist_ulna			R_HJC			L_HJC			R_HJC_reg			L_HJC_reg			
		X1	Y1	Z1	X2	Y2	Z2	X3	Y3	Z3	X4	Y4	Z4	X5	Y5	Z5	X6	Y6	Z6	X7	Y7	Z7	X8	Y8	Z8	X9	Y9	Z9	X10	Y10	Z10	X11	Y11	Z11	X12	Y12	Z12	X13	Y13	Z13	X14	Y14	Z14	X15	Y15	Z15	X16	Y16	Z16	X17	Y17	Z17	X18	Y18	Z18	X19	Y19	Z19	X20	Y20	Z20	X21	Y21	Z21	X22	Y22	Z22	X23	Y23	Z23	X24	Y24	Z24	X25	Y25	Z25	X26	Y26	Z26	X27	Y27	Z27	X28	Y28	Z28	X29	Y29	Z29	X30	Y30	Z30	X31	Y31	Z31	X32	Y32	Z32	X33	Y33	Z33	X34	Y34	Z34	X35	Y35	Z35	X36	Y36	Z36	X37	Y37	Z37	X38	Y38	Z38	X39	Y39	Z39	X40	Y40	Z40	X41	Y41	Z41	X42	Y42	Z42	X43	Y43	Z43	X44	Y44	Z44	X45	Y45	Z45	X46	Y46	Z46	X47	Y47	Z47	X48	Y48	Z48	X49	Y49	Z49	X50	Y50	Z50	X51	Y51	Z51	

1224	12.23000000	-179.38262	490.46791	-467.50457	-154.48025	419.48589	-450.72110	-311.69557	103.65803	-477.48762	-371.47823	50.11110	-525.74854	-178.79749	44.37789	-423.30598	-138.95988	69.34889	-479.39849	-167.50611	484.73933	-785.42218	-153.43480	382.01291	-789.52739	-310.45577	96.51224	-744.53432	-379.61981	51.99494	-704.34961	-164.32168	35.30571	-787.45714	-135.43993	65.24623	-725.70239	-188.83413	312.53244	-449.47960	-226.08201	442.35572	-440.04385	-268.01503	334.57119	-440.98321	-235.15686	417.59494	-803.00654	-272.79107	303.22451	-792.43573	-450.79713	626.93717	-435.63343	-345.23216	616.90546	-447.99508	-324.97715	552.87890	-424.66366	-463.30734	513.63564	-441.86091	-346.53389	507.62294	-441.78318	-439.33741	630.80456	-809.48015	-302.34261	607.74214	-801.74457	-462.26787	514.03127	-811.94582	-324.47881	498.24028	-811.81966	-494.15760	644.21963	-491.00493	-666.57514	718.57853	-578.28750	-477.96940	661.85398	-756.59111	-663.62475	715.13923	-680.64797	-325.56922	1130.20018	-630.92700	-265.33421	1056.16896	-457.53373	-260.23153	1055.93669	-788.20120	-226.86237	989.90813	-597.25755	-226.65990	988.67317	-649.38222	-415.60398	876.41887	-312.40439	-516.96664	807.60238	-351.51576	-475.94018	819.18063	-270.99305	-379.61169	692.36042	-296.84729	-313.80397	602.75860	-337.12649	-345.97957	589.73610	-309.33961	-409.35624	864.67763	-904.37792	-514.72358	806.01772	-856.53456	-477.01333	809.13624	-930.55807	-379.07254	663.15017	-912.87594	-311.20042	601.34448	-886.32183	-339.78773	575.28927	-897.14294	-583.73586	579.11701	-509.90723	-569.02027	591.70404	-739.45973	-576.31413	595.49480	-529.07394	-571.24638	589.58694	-704.89930	
1225	12.24000000	-180.36567	490.39890	-466.83508	-155.17969	419.89235	-450.03885	-311.68888	103.66107	-477.56678	-371.36928	50.11939	-525.74182	-178.80847	44.45362	-423.25563	-138.93455	69.34382	-479.41784	-168.51982	484.60649	-785.96102	-154.30229	381.97825	-789.24913	-310.46995	96.53673	-744.76023	-379.61982	51.96832	-704.42618	-164.33614	35.28334	-787.47680	-135.42781	65.30849	-725.78650	-189.21134	312.47595	-449.21835	-227.48116	441.73154	-440.43543	-268.47215	334.25592	-440.75515	-235.98238	417.27479	-803.05181	-273.26823	303.17883	-792.81335	-452.83827	623.54197	-435.92709	-348.00814	614.20148	-447.86532	-326.32664	551.03138	-423.59997	-464.39256	509.06357	-442.06900	-347.37041	505.19620	-441.82610	-442.26883	626.35160	-809.66305	-305.04512	605.51262	-802.10295	-463.58446	509.19159	-811.59257	-325.69215	495.22607	-811.61912	-497.22278	638.48424	-490.97077	-670.34562	711.11617	-578.33045	-481.18533	656.64658	-756.88958	-667.32009	707.64262	-680.74943	-331.85698	1125.21789	-631.19213	-270.88411	1051.68051	-457.68525	-266.09521	1051.32142	-788.62052	-232.20475	985.58751	-597.50872	-232.23229	984.24452	-649.63040	-420.19189	871.72791	-312.06345	-521.20417	802.03419	-350.78177	-480.07789	814.32673	-270.46879	-382.51456	688.49096	-296.67924	-315.72436	599.66404	-337.19531	-347.74290	586.34508	-309.29323	-414.12217	859.14776	-904.69484	-519.23345	799.54054	-856.50261	-481.52023	803.15063	-930.68488	-381.78596	658.52689	-913.40014	-312.96717	597.59217	-887.13319	-341.23068	571.26221	-897.82561	-586.01461	572.44131	-510.11502	-571.41966	585.42019	-739.65358	-578.94768	589.09776	-529.08458	-573.74650	583.12676	-705.13991	
1226	12.25000000	-181.54608	490.32541	-466.34309	-156.11367	420.19646	-449.73522	-311.73573	103.59595	-477.66012	-371.31852	50.07568	-525.73193	-178.83826	44.54433	-423.21513	-138.93597	69.40064	-479.42790	-169.64104	484.54075	-786.60637	-154.80658	382.49405	-790.25483	-310.48954	96.43492	-744.76698	-379.52908	51.92401	-704.46521	-164.34242	35.30620	-787.56828	-135.41667	65.35510	-725.84257	-189.74256	312.47189	-449.07196	-228.44931	441.37212	-440.39271	-268.91290	334.17060	-440.28117	-236.95709	417.11049	-803.23774	-273.79994	303.08867	-793.17677	-455.13364	620.49200	-436.05531	-350.71345	611.61664	-447.88635	-328.06936	548.94416	-423.26792	-465.54030	504.80994	-441.95232	-348.58161	502.59092	-441.94864	-445.34413	622.03916	-809.87733	-307.79306	603.32387	-802.47468	-464.89264	504.57193	-811.45549	-326.91001	492.57738	-811.60560	-500.30752	632.95295	-490.94316	-674.14558	703.74699	-578.41391	-484.35406	651.54430	-757.12844	-670.99804	700.27457	-680.84464	-338.41663	1120.53202	-631.42847	-276.76138	1047.52189	-457.74258	-272.16144	1046.99034	-788.91644	-237.78263	981.57186	-597.79639	-237.97642	980.11756	-649.83961	-425.07003	867.14914	-311.78815	-525.53855	796.47159	-350.25117	-484.52478	809.53461	-270.15119	-385.47993	684.95541	-296.57904	-317.84690	596.87355	-337.34605	-349.67301	583.18934	-309.48984	-419.14052	853.84988	-905.01833	-524.87754	793.99529	-856.82346	-486.10803	797.43357	-930.74862	-384.63905	654.13003	-913.93551	-314.89722	594.03339	-887.93152	-342.86958	567.37946	-898.29287	-588.28997	565.93693	-510.29518	-573.76616	579.25459	-739.81907	-581.55195	582.78363	-529.14930	-576.13598	576.80895	-705.38942	
1227	12.26000000	-182.82194	490.37479	-466.02100	-157.15422	420.44520	-449.60609	-311.80911	103.51790	-477.68228	-371.33504	50.04675	-525.78816	-178.89684	44.65541	-423.20451	-138.95038	69.55305	-479.33496	-170.87304	484.52917	-787.30283	-155.27870	383.19133	-791.63514	-310.53215	96.31970	-744.76238	-379.46226	51.89201	-704.54140	-164.34777	35.36393	-787.71264	-135.42029	65.43398	-725.91738	-190.49827	312.64144	-449.08741	-229.46707	441.23260	-440.16643	-269.55468	334.03448	-439.99261	-238.07155	417.02065	-803.63623	-274.37878	302.92734	-793.39662	-458.28189	616.93182	-435.95155	-353.43013	609.21116	-448.01611	-330.15578	546.53466	-423.57885	-466.67546	500.77070	-441.82083	-350.03646	500.04702	-442.14317	-448.49860	617.95127	-810.29324	-310.57605	601.17323	-802.78758	-466.21207	500.10042	-811.66635	-328.15634	490.16205	-811.67746	-503.07087	627.64017	-491.49657	-677.75191	696.56711	-578.80503	-487.61670	646.58681	-757.39585	-674.69542	693.11635	-680.97737	-345.36520	1116.16538	-631.68867	-282.97232	1043.72478	-457.78322	-278.48753	1042.95543	-788.99436	-243.60513	977.90715	-598.09837	-243.88439	976.38202	-650.09588	-430.22581	862.71472	-311.65502	-530.08474	791.16941	-350.05820	-489.25620	804.80954	-269.99701	-388.56771	681.70956	-296.61885	-320.12675	594.37325	-337.72339	-351.61314	580.49575	-309.71523	-424.34255	848.75556	-905.16430	-529.99989	789.01929	-856.89965	-490.81316	791.94469	-930.80888	-387.55172	649.95314	-914.40663	-316.91314	590.72320	-888.55617	-344.65772	563.66763	-898.68232	-590.32748	559.65763	-510.69129	-576.15071	573.27187	-740.21897	-583.77738	576.79954	-529.54055	-578.51181	570.85296	-705.59529	
